<svg xmlns="http://www.w3.org/2000/svg" xmlns:xlink="http://www.w3.org/1999/xlink" viewBox="0 0 353.98 337.3"><defs><style>.cls-1{fill:url(#linear-gradient);}.cls-2{fill:url(#linear-gradient-2);}.cls-3{fill:url(#linear-gradient-3);}.cls-4{fill:url(#linear-gradient-4);}.cls-5{fill:url(#linear-gradient-5);}.cls-6{fill:url(#linear-gradient-6);}.cls-7{fill:url(#linear-gradient-7);}.cls-8{font-size:62.4px;fill:#5d2789;font-family:GloryRoman-SemiBold, GloryRoman SemiBold;font-weight:600;}.cls-9{letter-spacing:-0.01em;}</style><linearGradient id="linear-gradient" x1="214.27" y1="236.67" x2="371" y2="236.67" gradientUnits="userSpaceOnUse"><stop offset="0" stop-color="#fcb040"/><stop offset="1" stop-color="#f25939"/></linearGradient><linearGradient id="linear-gradient-2" x1="325.82" y1="291.07" x2="325.82" y2="291.07" xlink:href="#linear-gradient"/><linearGradient id="linear-gradient-3" x1="217.06" y1="281.65" x2="217.06" y2="281.65" xlink:href="#linear-gradient"/><linearGradient id="linear-gradient-4" x1="182.19" y1="334.54" x2="393.31" y2="334.54" xlink:href="#linear-gradient"/><linearGradient id="linear-gradient-5" x1="161.79" y1="346.58" x2="410.35" y2="346.58" gradientUnits="userSpaceOnUse"><stop offset="0" stop-color="#8c2b95"/><stop offset="1" stop-color="#5d2789"/></linearGradient><linearGradient id="linear-gradient-6" x1="362.67" y1="345.75" x2="407.59" y2="345.75" xlink:href="#linear-gradient-5"/><linearGradient id="linear-gradient-7" x1="399.03" y1="233.81" x2="461.22" y2="233.81" xlink:href="#linear-gradient-5"/></defs><g id="Layer_3" data-name="Layer 3"><path class="cls-1" d="M263.18,312.24s-21.18,8.94-38.59,2.36-7.53-33-7.53-33L280.12,169c3.5-6.27,14-13.69,25.07-12.5,8.82,1,14.95,7.73,17.81,11.44l47.65,95.65s4.41,16.41-18.18,23.82l-26,4.57c-3.63-8.24-11.32-24.68-20.41-36.33-1.8-2.31-4.67-5.72-8.71-6-5.05-.32-9,4.29-11.23,7.19C275.18,271.3,263.18,312.24,263.18,312.24Z" transform="translate(-113.44 -156.32)"/><path class="cls-2" d="M325.82,291.07" transform="translate(-113.44 -156.32)"/><path class="cls-3" d="M217.06,281.65" transform="translate(-113.44 -156.32)"/></g><g id="Layer_4" data-name="Layer 4"><path class="cls-4" d="M236.12,329.65c-38.83,5.18-31.18-28.35-31.18-28.35-13.06,10.94-35.65,68.35-13.29,80.12,14.27,7.51,46.58-.68,60.94-6.59,1.91-.79,3.49-1.49,4.59-2A527.73,527.73,0,0,0,324,333.57a527.3,527.3,0,0,0,60.65-48.91C356.82,298.41,269.44,325.21,236.12,329.65Z" transform="translate(-113.44 -156.32)"/></g><g id="Layer_5" data-name="Layer 5"><path class="cls-5" d="M167.88,355.65s-5.64,40.59,36.36,44.83S309.76,374.71,410.35,271c-6.27,8.73-13.17,17.78-20.77,27,0,0-12.25,14.91-24.89,28.17C349,342.56,247.54,441.39,187.76,418.89c-3.86-1.45-13.83-5.35-20.23-15.24C155.51,385.1,165.77,360.49,167.88,355.65Z" transform="translate(-113.44 -156.32)"/></g><g id="Layer_6" data-name="Layer 6"><path class="cls-6" d="M406.24,363.25c-14.59-9.35-19.94-18.7-21.89-26-1.08-4-1.48-8.76-4.47-9.91-4-1.55-10.16,4.35-15.38,10.61a2.64,2.64,0,0,0-.65,1.6,2.73,2.73,0,0,0,.57,1.76c3.37,5.68,12.9,19.29,29.53,22.5a38,38,0,0,0,12.31.33.52.52,0,0,0,.23-.39A.51.51,0,0,0,406.24,363.25Z" transform="translate(-113.44 -156.32)"/></g><g id="Layer_7" data-name="Layer 7"><path class="cls-7" d="M452.82,207.19s3-7.53-.59-9.84c0,0-4.56-1.45-9.2,6.07l-7.39,14-8.74.22.86-1.6a1.7,1.7,0,0,0-.68-2.31l-2.4-1.3a1.71,1.71,0,0,0-2.31.68l-2.54,4.7L401,218.3s-2.82.89-1.74,3.54l27.88,10.81L419,247.53l-16,2.62s-2,2-1.61,3.15l13.57,5.39s-1.19,4.11.1,5.15c0,0,1.3.65,4.43-2.62l11.19,9.16s2-2.06,2-4l-6.06-14.4,8.85-14.14,23.05,17.57s1,.74,2.12-.67a2.93,2.93,0,0,0,0-3.71l-8.7-14.68,2.91-5.37a1.7,1.7,0,0,0-.68-2.31l-2.4-1.3a1.71,1.71,0,0,0-2.31.68l-1.16,2.15L444,223Z" transform="translate(-113.44 -156.32)"/></g><g id="Layer_8" data-name="Layer 8"><text class="cls-8" transform="translate(0 321.7)">ab<tspan class="cls-9" x="65.58" y="0">r</tspan><tspan x="85.36" y="0">oadtickets</tspan></text></g></svg>